<svg height="384pt" viewBox="0 0 384 384" width="384pt" xmlns="http://www.w3.org/2000/svg">
<path d="m335.996094 112h-31.992188v-48c0-35.289062-28.710937-64-64-64h-96c-35.289062 0-64 28.710938-64 64v48h-32c-13.832031 0-27 5.96875-36.121094 16.382812-9.109374 10.417969-13.289062 24.25-11.464843 37.960938l23.472656 175.992188c3.167969 23.753906 23.625 41.664062 47.585937 41.664062h241.054688c23.953125 0 44.410156-17.902344 47.578125-41.65625l23.460937-176c1.832032-13.710938-2.34375-27.542969-11.453124-37.960938-9.113282-10.414062-22.28125-16.382812-36.121094-16.382812zm-223.992188-48c0-17.648438 14.351563-32 32-32h96c17.648438 0 32 14.351562 32 32v48h-160zm239.847656 98.113281-23.464843 176c-1.046875 7.910157-7.871094 13.886719-15.855469 13.886719h-241.054688c-7.992187 0-14.808593-5.96875-15.855468-13.886719l-23.472656-176c-.617188-4.632812.734374-9.128906 3.824218-12.648437 3.085938-3.519532 7.359375-5.464844 12.03125-5.464844h287.992188c4.679687 0 8.960937 1.9375 12.046875 5.464844 3.082031 3.519531 4.433593 8.007812 3.808593 12.648437zm0 0"/>
</svg>